<?xml version="1.0" encoding="UTF-8"?>
<svg width="144px" height="28px" viewBox="0 0 144 28" version="1.1" xmlns="http://www.w3.org/2000/svg" xmlns:xlink="http://www.w3.org/1999/xlink">
    <defs>
        <linearGradient x1="-0.0187064021%" y1="49.9675432%" x2="100.027996%" y2="49.9675432%" id="linearGradient-1">
            <stop stop-color="#743E87" offset="0%"></stop>
            <stop stop-color="#E53550" offset="100%"></stop>
        </linearGradient>
        <linearGradient x1="-0.0277760742%" y1="50.0116291%" x2="100.027776%" y2="50.0116291%" id="linearGradient-2">
            <stop stop-color="#743E87" offset="0%"></stop>
            <stop stop-color="#E53550" offset="100%"></stop>
        </linearGradient>
        <linearGradient x1="-2.42592858e-14%" y1="49.654601%" x2="99.9999466%" y2="49.654601%" id="linearGradient-3">
            <stop stop-color="#743E87" offset="0%"></stop>
            <stop stop-color="#E53550" offset="100%"></stop>
        </linearGradient>
        <linearGradient x1="1.31502847e-15%" y1="50.0172747%" x2="99.9782399%" y2="50.0172747%" id="linearGradient-4">
            <stop stop-color="#743E87" offset="0%"></stop>
            <stop stop-color="#E53550" offset="100%"></stop>
        </linearGradient>
    </defs>
    <g id="Page-1" stroke="none" stroke-width="1" fill="none" fill-rule="evenodd">
        <g id="Dashboard---Guest-list" transform="translate(-32.000000, -32.000000)">
            <g id="Group-10" transform="translate(0.000000, 32.000000)" fill-rule="nonzero">
                <g id="Asset-4" transform="translate(32.000000, 0.000000)">
                    <path d="M37.1486705,6.23104478 C42.0596532,6.23104478 45.4473988,9.88776119 45.4473988,14.4053731 C45.4473988,18.9229851 42.0596532,22.5671642 37.1486705,22.5671642 C32.2376879,22.5671642 28.8499422,18.9229851 28.8499422,14.4053731 C28.8499422,9.88776119 32.2376879,6.23104478 37.1486705,6.23104478 Z M37.1486705,19.8507463 C40.1493642,19.8507463 42.3759538,17.401791 42.3759538,14.4179104 C42.3759538,11.4340299 40.1493642,8.98507463 37.1486705,8.98507463 C34.1479769,8.98507463 31.9213873,11.4089552 31.9213873,14.4053731 C31.9213873,17.401791 34.1479769,19.8507463 37.1486705,19.8507463 Z" id="Shape" fill="#FFFFFF"></path>
                    <path d="M47.3784971,11.3379104 L50.2210405,11.3379104 L50.2210405,12.2238806 C51.136074,11.4904183 52.2757441,11.0976324 53.446474,11.1122388 C56.4471676,11.1122388 58.8568786,13.6197015 58.8568786,16.8543284 C58.8744682,18.2673146 58.3821861,19.6389498 57.4709827,20.7158209 C56.3974942,21.905063 54.8700797,22.5784525 53.2716763,22.5671642 C52.2018357,22.5840034 51.1586862,22.2314029 50.316763,21.5683582 L50.316763,27.799403 L47.3618497,27.799403 L47.3784971,11.3379104 Z M50.3334104,18.4925373 C50.9474325,19.3523051 51.9392349,19.8588344 52.9928324,19.8507463 C53.7815204,19.8628355 54.540438,19.5486358 55.0914585,18.9818933 C55.6424791,18.4151509 55.9370844,17.6457683 55.9061272,16.8543284 C55.9061272,15.2662687 54.7949133,13.8369739 53.0677457,13.8369739 C51.9942636,13.8317341 50.9816563,14.3370368 50.3375723,15.199403 L50.3334104,18.4925373 Z" id="Shape" fill="#FFFFFF"></path>
                    <path d="M70.5225434,20.6029851 C69.3639088,21.8775323 67.7170066,22.5925766 65.9986127,22.5671642 C62.6982659,22.5671642 60.2219653,20.2979104 60.2219653,16.8459701 C60.2219653,13.7826866 62.3028902,11.1038806 65.5865896,11.1038806 C68.6330636,11.1038806 70.7930636,13.6698507 70.7930636,16.7331343 C70.7952661,17.0131611 70.772984,17.2928416 70.726474,17.5689552 L63.0853179,17.5689552 C63.2476099,19.0870553 64.5453049,20.2245162 66.0652023,20.1808955 C67.1199909,20.1567054 68.1200062,19.7043805 68.8369942,18.9271642 L70.5225434,20.6029851 Z M67.7715607,15.4250746 C67.6329101,14.319986 66.6958126,13.4919212 65.5865896,13.4943284 C64.4390685,13.4842335 63.4465301,14.2948918 63.222659,15.4250746 L67.7715607,15.4250746 Z" id="Shape" fill="#FFFFFF"></path>
                    <path d="M72.8323699,22.3498507 L72.8323699,11.3379104 L75.6707514,11.3379104 L75.6707514,12.2238806 C76.5498502,11.5012779 77.6519088,11.10827 78.7879769,11.112209 C80.2592588,11.1089514 81.6571272,11.7572667 82.6085549,12.8841791 C83.3327168,13.7450746 83.7447399,14.8567164 83.7447399,16.7414925 L83.7447399,22.3498507 L80.7898266,22.3498507 L80.7898266,16.4991045 C80.7898266,15.4083582 80.5359538,14.8274627 80.1280925,14.4346269 C79.6759727,14.0167578 79.077352,13.7958526 78.4633526,13.8202985 C77.4121578,13.8497256 76.4290884,14.3494295 75.7831214,15.1826866 L75.7831214,22.3498507 L72.8323699,22.3498507 Z" id="Path" fill="#FFFFFF"></path>
                    <path d="M87.9565318,5.54985075 C88.985601,5.57964895 89.7987225,6.43622747 89.7790801,7.46980449 C89.7594377,8.50338151 88.9143627,9.32818533 87.8849106,9.31853774 C86.8554584,9.30889014 86.0258613,8.46839197 86.0254335,7.43462687 C86.0275207,6.92592037 86.2334069,6.43946271 86.5966875,6.08489631 C86.9599681,5.7303299 87.4500708,5.53749363 87.9565318,5.54985075 Z M89.4339884,22.3498507 L86.4790751,22.3498507 L86.4790751,11.3379104 L89.4339884,11.3379104 L89.4339884,22.3498507 Z" id="Shape" fill="#FFFFFF"></path>
                    <path d="M92.3930636,22.3498507 L92.3930636,11.3379104 L95.2356069,11.3379104 L95.2356069,12.2238806 C96.1127338,11.5006492 97.2137333,11.107494 98.3486705,11.1121964 C99.8199525,11.1089514 101.217821,11.7572667 102.169249,12.8841791 C102.897572,13.7450746 103.305434,14.8567164 103.305434,16.7414925 L103.305434,22.3498507 L100.35052,22.3498507 L100.35052,16.4991045 C100.35052,15.4083582 100.100809,14.8274627 99.692948,14.4346269 C99.2408282,14.0167578 98.6422075,13.7958526 98.0282081,13.8202985 C96.975836,13.8496588 95.9914634,14.3492494 95.343815,15.1826866 L95.343815,22.3498507 L92.3930636,22.3498507 Z" id="Path" fill="#FFFFFF"></path>
                    <polygon id="Path" fill="#FFFFFF" points="110.289017 18.0579104 113.314682 11.3379104 116.381965 11.3379104 111.325318 22.3498507 109.28185 22.3498507 104.208555 11.3379104 107.28 11.3379104"></polygon>
                    <path d="M119.349364,5.54985075 C120.378433,5.57964895 121.191555,6.43622747 121.171912,7.46980449 C121.15227,8.50338151 120.307195,9.32818533 119.277743,9.31853774 C118.248291,9.30889014 117.418694,8.46839197 117.418266,7.43462687 C117.421488,6.92628067 117.627731,6.44049556 117.990759,6.08617611 C118.353786,5.73185666 118.84323,5.53864317 119.349364,5.54985075 Z M120.826821,22.3498507 L117.871908,22.3498507 L117.871908,11.3379104 L120.826821,11.3379104 L120.826821,22.3498507 Z" id="Shape" fill="#FFFFFF"></path>
                    <path d="M132.080462,22.3498507 C131.479439,22.5038745 130.861199,22.5797193 130.240925,22.5755224 C128.467977,22.5755224 127.16948,21.9862687 126.420347,20.9874627 C125.854335,20.239403 125.587977,19.2614925 125.587977,17.6943284 L125.587977,13.8370149 L122.520694,13.8370149 L122.520694,11.3295522 L125.587977,11.3295522 L125.587977,8.27462687 L128.547052,8.27462687 L128.547052,11.3379104 L132.184509,11.3379104 L132.184509,13.8453731 L128.559538,13.8453731 L128.559538,18.0244776 C128.507263,18.5145532 128.636119,19.0068342 128.921618,19.4077612 C129.316168,19.8059361 129.867016,20.0066573 130.424046,19.9552239 C130.82755,19.9505303 131.229925,19.9113843 131.626821,19.838209 L132.080462,22.3498507 Z" id="Path" fill="#FFFFFF"></path>
                    <path d="M143.629595,20.6029851 C142.471918,21.8788796 140.82438,22.5942 139.105665,22.5671642 C135.80948,22.5671642 133.333179,20.2979104 133.333179,16.8459701 C133.333179,13.7826866 135.414104,11.1038806 138.697803,11.1038806 C141.744277,11.1038806 143.904302,13.6698507 143.904302,16.7331343 C143.90517,17.0132865 143.881495,17.2929735 143.833526,17.5689552 L136.196532,17.5689552 C136.347164,19.0931214 137.652108,20.2369363 139.176416,20.1808955 C140.23099,20.1557554 141.230654,19.7035894 141.948208,18.9271642 L143.629595,20.6029851 Z M140.878613,15.4250746 C140.740158,14.3215679 139.805441,13.4940308 138.697803,13.4943284 C137.5497,13.4825613 136.556232,14.2939782 136.333873,15.4250746 L140.878613,15.4250746 Z" id="Shape" fill="#FFFFFF"></path>
                    <path d="M8.37364162,18.0202985 C8.07455503,18.019318 7.78773318,17.9008135 7.57456647,17.6901493 C7.13805361,17.2499014 7.13805361,16.5381583 7.57456647,16.0979104 L12.8143353,10.8656716 C13.255613,10.4263781 13.967046,10.4263781 14.4083237,10.8656716 C14.6200432,11.0760413 14.7391742,11.3627041 14.7391742,11.661791 C14.7391742,11.960878 14.6200432,12.2475408 14.4083237,12.4579104 L9.15606936,17.6901493 C8.9470347,17.8968219 8.66694914,18.0150054 8.37364162,18.0202985 Z" id="Path" fill="url(#linearGradient-1)"></path>
                    <path d="M14.0337572,9.64537313 C14.0337572,9.64537313 14.0587283,9.64537313 14.0337572,9.60358209 L11.3743353,6.94567164 C11.3688114,6.9386263 11.3603749,6.93451396 11.3514451,6.93451396 C11.3425153,6.93451396 11.3340788,6.9386263 11.3285549,6.94567164 L8.66913295,9.6119403 C8.66071666,9.62458887 8.66071666,9.64108277 8.66913295,9.65373134 L15.1408092,16.1062687 C15.5786785,16.5482613 15.5768152,17.263002 15.1366474,17.7026866 C14.6964796,18.1423712 13.98469,18.1405001 13.5468208,17.6985075 L8.44023121,12.6 L7.07514451,11.241791 C6.64792292,10.8137304 6.40783414,10.2325958 6.40783414,9.62656716 C6.40783414,9.0205385 6.64792292,8.43940391 7.07514451,8.01134328 L9.73456647,5.35343284 C10.6304599,4.45989248 12.0765921,4.45989248 12.9724855,5.35343284 L15.6319075,8.01134328 C16.0591291,8.43940391 16.2992179,9.0205385 16.2992179,9.62656716 C16.2992179,10.2325958 16.0591291,10.8137304 15.6319075,11.241791 L14.4083237,12.4579104 C13.967046,12.897204 13.255613,12.897204 12.8143353,12.4579104 C12.6026158,12.2475408 12.4834848,11.960878 12.4834848,11.661791 C12.4834848,11.3627041 12.6026158,11.0760413 12.8143353,10.8656716 L14.0337572,9.64537313 Z" id="Path" fill="url(#linearGradient-2)"></path>
                    <path d="M22.6862428,11.5719403 C22.702976,11.6473991 22.711226,11.7244842 22.711226,11.801791 L22.711226,21.5516418 C22.711226,21.8516265 22.5922554,22.139264 22.3806199,22.3509927 C22.1689844,22.5627215 21.8820967,22.6811111 21.5833526,22.6800078 L15.6152601,22.6800078 C15.3165161,22.6811111 15.0296284,22.5627215 14.8179929,22.3509927 C14.6063573,22.139264 14.4873968,21.8516265 14.4873988,21.5516418 L14.4873988,19.9301493 C14.4899709,19.0923395 14.1552686,18.2890395 13.5593064,17.7026866 C13.2753112,17.417514 13.1643984,17.0018659 13.2683479,16.6123128 C13.3722973,16.2227598 13.6753166,15.9184843 14.0632612,15.8141039 C14.4512058,15.7097235 14.8651378,15.821096 15.1491329,16.1062687 C16.1730935,17.1123248 16.7480591,18.4916321 16.7431214,19.9301493 L16.7431214,20.4274627 L20.4554913,20.4274627 L20.4554913,11.801791 C20.4553547,11.7244842 20.4637292,11.6473991 20.4804624,11.5719403 C20.4634906,11.4951067 20.4551151,11.4166105 20.4554913,11.3379104 C20.3496277,6.3674859 16.3066414,2.39363516 11.3556069,2.39363516 C6.40457245,2.39363516 2.36158616,6.3674859 2.25572254,11.3379104 C2.25572254,11.9633935 1.75076185,12.4704478 1.12786127,12.4704478 C0.504960691,12.4704478 5.91434416e-15,11.9633935 5.91434416e-15,11.3379104 C0.118447067,5.12545582 5.16766868,0.151440042 11.3556069,0.151440042 C17.5435452,0.151440042 22.5927668,5.12545582 22.711226,11.3379104 C22.7115901,11.4166105 22.7032146,11.4951067 22.6862428,11.5719403 Z" id="Path" fill="url(#linearGradient-3)"></path>
                    <path d="M7.09595376,22.6800309 L1.12786127,22.6800309 C0.829117214,22.6811111 0.54222952,22.5627215 0.330594012,22.3509927 C0.118958504,22.139264 0,21.8516265 0,21.5516418 L0,11.8059701 C0,11.1804871 0.504960691,10.6734328 1.12786127,10.6734328 C1.75076185,10.6734328 2.25572254,11.1804871 2.25572254,11.8059701 L2.25572254,20.4274627 L5.96809249,20.4274627 L5.96809249,19.9176119 C5.96457752,18.4793795 6.53932092,17.1006054 7.56208092,16.0937313 C8.00241798,15.6521493 8.71573231,15.6521493 9.15606936,16.0937313 C9.36778883,16.304101 9.48691986,16.5907638 9.48691986,16.8898507 C9.48691986,17.1889377 9.36778883,17.4756005 9.15606936,17.6859701 C8.56283071,18.2738313 8.22988515,19.0765147 8.23213873,19.9134328 L8.23213873,21.5474627 C8.23214691,21.849284 8.11217709,22.1386233 7.89885839,22.3512571 C7.68553969,22.563891 7.39652075,22.6822275 7.09595376,22.6800309 Z" id="Path" fill="url(#linearGradient-4)"></path>
                </g>
            </g>
        </g>
    </g>
</svg>