<?xml version="1.0" ?><svg data-name="Layer 1" id="Layer_1" viewBox="0 0 100 100" xmlns="http://www.w3.org/2000/svg"><title/><path d="M5.29291,50.70709l10,10a1,1,0,0,0,1.41418-1.41418v-.00006L8.41431,51H40a1,1,0,0,0,0-2H8.41418l8.29291-8.29291a1,1,0,0,0-1.41418-1.41418l-10,9.99994-.00336.005a1.00124,1.00124,0,0,0,.00336,1.40924Z"/><path d="M94.71045,49.29785l-.00336-.005-10-10a1,1,0,1,0-1.41418,1.4143v-.00006L91.58582,49H60a1,1,0,0,0,0,2H91.58557l-8.29266,8.29285a1,1,0,1,0,1.41424,1.4143l9.99994-10.00006a.99919.99919,0,0,0,.00336-1.40924Z"/><path d="M59.29291,16.70709a1,1,0,0,0,1.41424-1.41418L50.70709,5.29285l-.00586-.00391a.998.998,0,0,0-1.40246,0l-.00586.00391-10,10a1,1,0,1,0,1.41424,1.41424h-.00006L49,8.41418V40a1,1,0,0,0,2,0V8.41418Z"/><path d="M51,91.58569V60a1,1,0,0,0-2,0V91.58569l-8.29291-8.29284a1,1,0,1,0-1.41418,1.4143l10,9.99994a.96155.96155,0,0,0,.67022.28546C49.97607,94.993,49.98694,95,50,95s.02393-.007.03687-.00745a.96155.96155,0,0,0,.67022-.28546l10-10a1,1,0,1,0-1.41418-1.41418v-.00006Z"/><path d="M11,94.99994H28a.99994.99994,0,1,0,0-1.99988L11,93a4.0003,4.0003,0,0,1-4-4V72a1,1,0,0,0-2,0V89A6.00052,6.00052,0,0,0,11,94.99994Z"/><path d="M6,29a1,1,0,0,0,1-1V11a4.0003,4.0003,0,0,1,4-4.00006H28A1,1,0,1,0,28,5H11a6.00053,6.00053,0,0,0-6,6V28A1,1,0,0,0,6,29Z"/><path d="M89,5H72a1,1,0,0,0,0,2l17-.00006A4.0003,4.0003,0,0,1,93,11V28a1,1,0,0,0,2,0V11A6.00053,6.00053,0,0,0,89,5Z"/><path d="M94,71a1,1,0,0,0-.99994,1L93,89a4.0003,4.0003,0,0,1-4,4H72a1,1,0,0,0,0,2v-.00006H89A6.00052,6.00052,0,0,0,95,89V72A1,1,0,0,0,94,71Z"/></svg>