
<svg width="100px" height="22px" viewBox="0 0 100 22" version="1.1" xmlns="http://www.w3.org/2000/svg" xmlns:xlink="http://www.w3.org/1999/xlink">
    <g id="Page-1" stroke="none" fill="none" fill-rule="evenodd">
        <path d="M100,0 L100,22 L0,22 L0,0 L100,0 Z M10,2 L7.06107374,7.95491503 L0.489434837,8.90983006 L5.24471742,13.545085 L4.12214748,20.0901699 L10,17 L15.8778525,20.0901699 L14.7552826,13.545085 L19.5105652,8.90983006 L12.9389263,7.95491503 L10,2 Z M30,2 L27.0610737,7.95491503 L20.4894348,8.90983006 L25.2447174,13.545085 L24.1221475,20.0901699 L30,17 L35.8778525,20.0901699 L34.7552826,13.545085 L39.5105652,8.90983006 L32.9389263,7.95491503 L30,2 Z M50,2 L47.0610737,7.95491503 L40.4894348,8.90983006 L45.2447174,13.545085 L44.1221475,20.0901699 L50,17 L55.8778525,20.0901699 L54.7552826,13.545085 L59.5105652,8.90983006 L52.9389263,7.95491503 L50,2 Z M70,2 L67.0610737,7.95491503 L60.4894348,8.90983006 L65.2447174,13.545085 L64.1221475,20.0901699 L70,17 L75.8778525,20.0901699 L74.7552826,13.545085 L79.5105652,8.90983006 L72.9389263,7.95491503 L70,2 Z M90,2 L87.0610737,7.95491503 L80.4894348,8.90983006 L85.2447174,13.545085 L84.1221475,20.0901699 L90,17 L95.8778525,20.0901699 L94.7552826,13.545085 L99.5105652,8.90983006 L92.9389263,7.95491503 L90,2 Z" fill="#fff"></path>
    </g>
</svg>